<?xml version="1.0" standalone="no"?>
<!DOCTYPE svg PUBLIC "-//W3C//DTD SVG 20010904//EN"
 "http://www.w3.org/TR/2001/REC-SVG-20010904/DTD/svg10.dtd">
<svg version="1.0" xmlns="http://www.w3.org/2000/svg"
 width="800.000000pt" height="800.000000pt" viewBox="0 0 800.000000 800.000000"
 preserveAspectRatio="xMidYMid meet">
<metadata>
Created by potrace 1.11, written by Peter Selinger 2001-2013
</metadata>
<g transform="translate(0.000000,800.000000) scale(0.100000,-0.100000)"
fill="#000000" stroke="none">
<path d="M6932 6270 c0 -14 2 -19 5 -12 2 6 2 18 0 25 -3 6 -5 1 -5 -13z"/>
<path d="M6931 6074 c0 -11 3 -14 6 -6 3 7 2 16 -1 19 -3 4 -6 -2 -5 -13z"/>
<path d="M667 6059 c-27 -4 -67 -15 -89 -23 -21 -9 -44 -13 -50 -10 -7 4 -8 2
-4 -4 4 -7 -7 -18 -26 -28 -18 -9 -41 -23 -50 -32 -10 -8 -18 -13 -18 -9 0 3
-23 -18 -52 -46 -28 -29 -55 -51 -60 -49 -5 1 -7 -2 -3 -8 3 -5 -5 -21 -19
-35 -14 -14 -23 -25 -20 -25 2 0 0 -9 -6 -20 -6 -11 -15 -18 -20 -15 -6 3 -7
-1 -4 -9 4 -10 1 -16 -7 -16 -7 0 -9 -3 -6 -6 3 -4 1 -16 -5 -28 -7 -11 -11
-24 -10 -28 1 -5 -6 -8 -15 -8 -12 0 -14 -3 -7 -8 8 -5 6 -23 -7 -66 -10 -32
-16 -62 -13 -67 3 -5 0 -9 -6 -9 -6 0 -8 -4 -5 -10 3 -5 0 -10 -7 -10 -8 0 -9
-3 -3 -8 13 -9 17 -32 6 -32 -5 0 -8 -11 -8 -25 0 -16 4 -22 11 -18 8 5 8 3 0
-8 -14 -18 -14 -51 0 -62 7 -6 5 -7 -6 -4 -11 4 -15 0 -13 -11 1 -9 -2 -24 -8
-32 -9 -12 -9 -13 3 -2 19 17 35 15 21 -2 -9 -11 -9 -15 1 -20 7 -3 3 -3 -10
0 -13 3 -22 1 -22 -6 0 -6 4 -9 8 -6 4 2 14 1 22 -5 13 -7 13 -9 0 -9 -13 0
-13 -1 0 -10 8 -5 15 -17 15 -27 0 -10 4 -24 9 -32 6 -9 5 -12 -1 -8 -6 4 -13
-2 -16 -14 -5 -17 -3 -18 11 -7 13 11 15 11 10 -3 -4 -9 -1 -25 6 -35 7 -11
11 -26 11 -34 -1 -8 4 -25 12 -37 7 -13 10 -23 6 -23 -5 0 -1 -5 7 -10 9 -6
11 -10 3 -10 -7 0 -10 -7 -7 -15 4 -8 10 -13 14 -10 5 3 7 -3 5 -12 -1 -10 1
-25 6 -33 5 -12 2 -16 -12 -17 -13 -1 -17 2 -12 10 14 22 11 36 -5 29 -11 -4
-12 -7 -4 -10 10 -3 10 -7 1 -18 -6 -8 -8 -15 -3 -16 5 0 14 -2 19 -3 6 -2 16
-3 23 -4 7 0 10 -6 7 -11 -4 -6 -12 -7 -18 -3 -8 5 -8 2 0 -9 7 -8 9 -19 5
-23 -4 -5 -1 -5 6 -1 7 4 9 13 5 19 -4 7 2 5 13 -3 29 -22 30 -24 11 -17 -21
8 -22 0 -2 -19 16 -16 9 -47 -9 -37 -6 3 -7 2 -3 -2 10 -12 39 -16 32 -5 -3 4
5 5 17 2 19 -5 20 -7 5 -10 -12 -2 -16 -11 -14 -27 4 -30 12 -39 27 -30 8 5 6
11 -6 19 -11 9 -13 15 -6 20 6 3 15 0 19 -9 12 -21 4 -87 -10 -78 -6 3 -7 1
-3 -6 6 -9 11 -9 22 0 7 6 11 15 8 20 -3 5 2 6 10 3 14 -5 14 -8 1 -21 -8 -8
-15 -17 -15 -21 0 -3 5 -1 12 6 7 7 19 12 27 11 12 0 11 -2 -3 -8 -17 -7 -17
-8 -1 -24 9 -10 21 -14 27 -11 5 4 5 -4 -2 -16 -10 -19 -10 -24 4 -32 9 -5 13
-14 10 -20 -4 -7 -2 -8 4 -4 7 4 12 3 12 -3 0 -5 -6 -11 -12 -14 -7 -3 -3 -4
9 -4 21 1 22 3 8 24 -14 20 -13 22 7 18 24 -5 37 -15 20 -15 -7 0 -12 -5 -12
-11 0 -6 9 -8 23 -4 19 5 20 5 4 -5 -9 -6 -15 -15 -12 -21 3 -5 -1 -6 -9 -3
-9 3 -16 2 -16 -4 0 -15 30 -8 41 9 7 10 8 6 4 -12 -5 -20 0 -33 20 -53 25
-25 42 -35 31 -18 -2 4 4 8 14 8 10 0 17 -4 14 -7 -2 -4 0 -10 4 -13 11 -6 9
-36 -3 -56 -8 -13 -6 -13 8 -1 16 12 22 8 18 -12 -1 -5 2 -6 7 -3 4 2 14 1 22
-5 12 -6 12 -9 2 -9 -10 0 -9 -5 4 -17 21 -21 51 -27 60 -11 5 8 2 9 -10 5
-10 -4 -15 -3 -11 3 3 5 -8 18 -24 28 -17 10 -28 22 -23 27 4 5 1 5 -7 0 -10
-6 -12 -4 -6 5 5 8 4 11 -3 6 -6 -3 -13 -2 -16 3 -4 5 -2 12 2 15 5 3 21 -8
36 -25 16 -17 34 -28 41 -25 8 3 17 0 21 -6 4 -7 3 -8 -4 -4 -7 4 -12 3 -12
-2 0 -6 6 -12 14 -15 9 -4 12 -14 9 -25 -2 -11 1 -23 8 -28 9 -5 11 -2 6 9 -4
11 0 15 13 14 14 -1 16 -4 8 -14 -6 -7 -7 -13 -2 -13 5 0 3 -4 -5 -9 -9 -6
-10 -11 -2 -15 10 -7 16 6 12 27 -1 5 3 6 9 2 5 -3 10 -12 10 -20 0 -18 31
-28 44 -14 8 9 7 10 -6 6 -9 -3 -18 0 -21 6 -3 7 5 12 18 12 23 0 25 -9 10
-46 -5 -12 1 -16 25 -17 16 0 30 4 30 10 0 6 3 8 6 5 4 -4 1 -13 -6 -21 -6 -9
-10 -21 -7 -28 4 -8 6 -7 6 5 1 9 6 17 11 17 6 0 10 8 11 18 0 13 2 14 6 2 3
-8 12 -23 21 -32 8 -10 12 -18 7 -18 -4 0 -13 7 -20 17 -9 13 -14 13 -20 3 -6
-9 -4 -11 5 -5 10 6 12 4 7 -9 -4 -9 -3 -15 2 -11 5 3 17 -3 27 -12 13 -14 16
-14 12 -3 -3 8 0 21 7 27 10 10 14 9 19 -3 3 -9 1 -12 -4 -9 -6 3 -10 2 -10
-3 0 -5 10 -12 23 -15 12 -2 31 -8 41 -12 15 -7 17 -5 11 6 -8 12 -6 12 8 0
19 -15 22 -31 6 -31 -5 0 -8 4 -5 8 2 4 -3 8 -12 8 -9 1 -26 4 -37 8 -11 4 -4
-2 15 -13 20 -11 44 -17 58 -14 13 3 22 1 22 -7 0 -6 -4 -8 -10 -5 -6 3 -7 -1
-4 -10 4 -9 13 -14 20 -11 7 3 16 1 19 -5 4 -5 10 -7 15 -4 5 3 13 -3 19 -12
10 -17 10 -17 11 0 0 16 -12 22 -34 18 -5 -1 -4 5 4 13 7 9 18 16 24 16 7 0 6
-4 -2 -9 -11 -7 -11 -9 1 -14 8 -3 19 -1 24 4 10 10 12 4 16 -46 1 -14 5 -25
8 -25 3 0 6 -6 6 -12 0 -7 3 -26 6 -43 4 -16 8 -43 11 -60 36 -218 42 -250 76
-415 17 -85 47 -216 67 -290 19 -74 36 -142 38 -150 25 -110 124 -378 185
-502 95 -192 157 -265 312 -368 66 -44 121 -80 123 -80 2 0 49 -27 106 -61
260 -155 611 -296 878 -355 36 -8 75 -17 86 -19 41 -10 242 -44 290 -49 265
-32 336 -36 640 -35 132 0 263 2 291 3 72 5 205 17 234 21 14 2 50 7 80 10 30
4 67 9 83 11 15 2 40 6 56 8 204 29 549 127 726 206 333 149 698 366 781 465
154 183 279 487 393 955 35 143 88 401 105 510 3 19 8 46 11 60 2 13 7 42 10
65 4 22 9 54 11 70 3 17 7 35 8 42 1 7 5 15 8 19 4 3 4 12 2 19 -3 8 4 18 15
24 13 7 18 18 15 29 -5 13 -4 14 4 4 13 -19 16 -19 38 -2 19 14 19 14 0 -7
-10 -13 -22 -20 -26 -18 -4 3 -11 -2 -14 -11 -3 -8 -11 -12 -17 -8 -8 4 -9 3
-5 -4 5 -9 13 -8 30 3 12 8 26 12 31 8 4 -5 5 -3 2 3 -4 7 0 15 9 18 10 4 14
14 11 25 -3 14 -1 18 9 14 8 -3 11 -9 8 -14 -3 -5 0 -9 5 -9 6 0 11 5 11 10 0
6 7 10 15 10 8 0 15 -7 15 -17 0 -9 3 -14 6 -10 13 13 -7 46 -27 42 -11 -2
-17 0 -14 4 3 5 20 7 39 5 29 -2 34 0 30 14 -5 15 -4 15 6 0 16 -26 28 -22 25
7 -2 14 1 23 6 19 5 -3 7 -9 4 -14 -3 -5 -1 -11 4 -15 6 -3 8 5 5 20 -2 14 0
25 6 25 6 0 8 -5 4 -12 -5 -8 -2 -9 9 -5 9 3 19 2 22 -3 4 -6 14 -10 23 -9 13
0 12 2 -4 9 -32 13 -42 32 -11 21 25 -10 31 -1 15 24 -4 6 -2 17 3 25 8 12 9
11 7 -4 -2 -10 3 -21 11 -24 10 -3 12 0 8 12 -4 10 -3 15 3 11 14 -9 12 8 -2
25 -11 12 -10 12 4 1 10 -7 20 -21 23 -32 6 -17 8 -17 21 -5 20 20 18 31 -3
15 -10 -7 -15 -10 -11 -5 4 5 3 18 -3 30 -10 20 -10 20 5 2 16 -19 17 -19 20
7 0 6 7 13 14 13 6 1 17 2 23 3 5 0 7 6 3 13 -4 6 -3 8 4 4 6 -3 16 2 22 11 9
14 10 14 7 2 -4 -12 1 -15 20 -13 14 1 28 5 31 9 4 4 -2 5 -12 3 -10 -1 -21 2
-23 8 -2 7 7 10 27 8 16 -2 30 1 30 6 0 5 8 7 18 4 14 -5 14 -4 2 4 -8 6 -17
9 -21 6 -4 -2 -6 3 -5 11 2 17 44 50 53 42 2 -3 -8 -12 -24 -21 -15 -8 -22
-15 -14 -16 17 0 72 46 64 54 -4 3 -1 6 6 6 9 0 9 6 1 23 l-11 22 20 -22 c21
-25 41 -32 21 -8 -18 21 -2 38 29 30 25 -6 25 -6 6 8 -11 9 -24 13 -30 10 -5
-3 -5 0 2 7 10 11 15 11 28 0 9 -7 15 -9 14 -4 -3 18 1 34 9 33 19 -3 33 2 27
11 -3 6 2 10 11 10 16 0 16 1 -2 15 -10 8 -14 15 -9 15 6 0 3 5 -5 11 -13 9
-13 10 0 8 32 -3 51 1 45 11 -4 6 -12 8 -18 4 -7 -3 -4 1 5 9 10 8 16 16 13
19 -3 2 2 5 10 5 10 0 12 -4 5 -12 -7 -9 -6 -14 4 -18 9 -4 18 -1 22 5 5 7 2
8 -6 3 -10 -6 -12 -4 -7 8 3 9 2 19 -4 22 -5 4 -6 11 -3 17 4 6 0 15 -7 20
-12 8 -11 9 1 5 8 -2 14 -11 14 -19 -1 -10 5 -14 17 -11 16 5 16 7 4 20 -8 8
-15 19 -15 24 0 6 7 3 16 -5 21 -21 22 -20 16 10 -4 25 -4 26 19 13 22 -11 23
-11 10 4 -13 17 -13 18 12 21 6 0 12 10 12 21 0 12 8 34 19 49 10 16 13 26 8
22 -6 -3 -13 -2 -17 4 -4 6 -11 8 -16 5 -15 -10 -10 2 8 16 11 10 14 10 9 2
-4 -8 -2 -13 6 -13 15 1 57 30 42 30 -6 0 -15 -5 -21 -11 -7 -7 -12 -6 -17 6
-3 10 -2 14 4 10 7 -4 9 4 5 23 -3 21 1 34 15 47 11 10 17 22 14 27 -3 4 0 7
8 6 9 -2 13 9 13 35 0 20 3 37 7 37 3 0 5 11 4 25 -2 13 1 22 5 19 5 -3 9 3 9
12 0 16 2 15 22 -2 14 -12 18 -13 10 -3 -6 9 -8 19 -4 23 4 4 0 6 -8 4 -15 -3
-24 39 -9 47 4 3 6 15 4 26 -4 20 -3 20 20 5 17 -11 26 -13 31 -4 4 6 3 8 -3
5 -23 -14 -51 49 -30 69 12 12 8 26 -5 18 -7 -5 -8 -3 -2 7 13 21 14 39 1 39
-8 0 -8 3 0 11 6 6 9 19 6 28 -4 13 -2 13 7 -2 6 -9 8 -22 4 -29 -4 -6 -3 -8
4 -4 17 10 10 45 -10 52 -10 3 -16 10 -12 15 3 5 10 7 15 4 5 -4 9 -2 9 4 0 5
-5 11 -10 13 -15 5 -21 48 -7 48 8 0 7 3 -2 9 -7 5 -14 23 -15 40 0 17 -4 31
-9 31 -4 0 -5 4 -2 10 3 6 3 16 -2 23 -11 17 -11 30 0 45 7 9 6 11 -5 7 -14
-6 -30 25 -33 61 0 6 -8 19 -18 28 -9 10 -14 22 -11 28 4 6 2 8 -3 5 -13 -8
-26 20 -16 35 3 6 1 8 -4 5 -14 -9 -37 19 -27 34 4 7 3 9 -3 6 -11 -7 -89 73
-84 88 1 5 -1 7 -5 3 -10 -11 -35 12 -27 25 3 5 1 7 -5 3 -14 -9 -84 33 -75
47 3 6 1 7 -6 3 -7 -4 -31 1 -54 12 -98 46 -241 46 -331 0 -49 -25 -128 -105
-146 -147 -7 -17 -16 -29 -19 -26 -9 5 -31 -132 -31 -185 0 -19 5 -51 11 -70
5 -19 10 -52 10 -72 0 -21 4 -38 9 -38 4 0 6 9 3 20 -3 13 0 20 8 20 10 0 10
3 1 12 -15 15 -15 28 -1 28 5 0 7 -4 4 -10 -3 -5 -1 -10 4 -10 6 0 11 -9 11
-19 0 -10 7 -21 15 -25 8 -3 15 -1 15 5 0 6 7 8 16 5 9 -3 12 -2 9 5 -4 6 -13
8 -19 6 -7 -3 -13 2 -13 10 0 8 7 13 17 10 11 -3 16 3 17 17 1 12 -1 15 -4 9
-3 -7 -12 -13 -21 -12 -11 0 -12 2 -4 6 6 2 12 9 12 14 0 6 -5 7 -12 3 -18
-11 3 19 24 34 10 7 15 18 12 24 -4 7 -2 8 5 4 9 -6 9 -11 1 -21 -8 -9 -6 -14
5 -19 10 -3 13 -2 10 5 -4 5 -1 16 5 25 10 12 16 12 29 2 14 -12 14 -11 3 4
-8 9 -11 23 -7 30 4 7 -3 2 -14 -12 -11 -14 -21 -20 -21 -13 0 6 5 15 10 18 8
5 7 12 -2 23 -11 15 -11 15 3 5 11 -9 19 -9 26 -2 8 8 17 7 33 -1 16 -9 25 -9
36 1 17 14 18 29 3 29 -5 0 -7 -4 -4 -10 4 -6 -1 -7 -12 -4 -15 5 -16 4 -3 -5
8 -6 10 -11 4 -11 -6 0 -17 7 -24 15 -7 8 -17 12 -23 8 -6 -4 -7 -1 -2 6 5 9
10 10 18 2 6 -6 16 -7 27 -1 19 10 46 8 57 -5 4 -4 2 -5 -6 0 -10 5 -12 4 -7
-4 4 -6 12 -9 17 -6 5 4 9 1 9 -5 0 -7 5 -10 11 -8 6 2 9 8 7 13 -2 6 -6 9
-10 7 -5 -1 -8 3 -8 9 0 6 7 8 16 5 9 -3 20 -6 25 -6 4 0 5 -8 2 -17 -6 -16
-5 -16 10 -4 9 7 17 10 17 5 0 -4 7 1 16 12 15 18 15 18 5 -3 -6 -12 -16 -24
-23 -27 -7 -3 -2 -3 12 0 20 5 23 4 13 -7 -7 -7 -13 -18 -13 -24 0 -5 7 -2 15
8 7 11 11 25 8 33 -8 23 3 16 22 -12 13 -20 14 -28 4 -40 -7 -8 -8 -14 -3 -13
21 4 28 -2 14 -11 -11 -7 -4 -9 24 -5 36 4 37 3 20 -10 -16 -12 -17 -14 -3
-15 9 0 20 -7 23 -16 5 -13 -1 -12 -31 5 -32 18 -34 18 -16 3 15 -13 19 -22
12 -29 -16 -16 9 -27 27 -12 12 10 13 9 8 -4 -3 -8 0 -26 7 -39 10 -20 10 -21
-2 -11 -11 9 -14 7 -14 -12 0 -13 3 -21 7 -18 5 2 8 -5 8 -16 0 -12 -5 -21
-11 -21 -5 0 -7 5 -3 12 4 7 3 8 -5 4 -6 -4 -9 -11 -6 -16 3 -5 -3 -14 -12
-20 -16 -10 -16 -11 -1 -6 18 5 32 -7 21 -18 -4 -4 -8 -14 -9 -24 -2 -9 -7
-18 -13 -20 -5 -2 -8 -9 -5 -17 3 -7 0 -16 -7 -21 -8 -5 -10 -3 -4 6 5 8 4 11
-3 6 -6 -4 -9 -12 -6 -20 3 -7 -16 -41 -42 -76 -36 -49 -48 -60 -56 -49 -8 11
-9 11 -5 -3 6 -18 -25 -52 -38 -41 -4 5 -6 4 -3 -2 3 -5 0 -16 -8 -23 -8 -7
-14 -10 -14 -7 0 3 -8 -3 -19 -12 -38 -36 -66 -53 -78 -49 -7 3 -12 0 -10 -7
1 -7 -4 -11 -10 -10 -7 2 -13 -2 -13 -8 0 -6 -7 -8 -16 -5 -8 3 -13 2 -10 -2
3 -5 -18 -18 -46 -30 -47 -20 -50 -20 -45 -3 2 10 1 24 -3 31 -4 7 -7 1 -7
-15 0 -34 -11 -41 -95 -60 -152 -34 -345 -12 -479 56 -130 65 -212 142 -326
309 -415 601 -975 857 -1543 704 -205 -54 -337 -152 -435 -321 -26 -46 -51
-83 -55 -83 -4 0 -29 37 -55 83 -98 169 -230 267 -435 321 -572 154 -1135
-107 -1552 -719 -115 -168 -234 -268 -392 -328 -78 -30 -87 -32 -236 -32 -144
0 -179 5 -250 32 -8 4 -17 7 -20 7 -23 5 -120 50 -120 56 0 4 -11 11 -25 14
-14 4 -25 11 -25 16 0 6 -7 10 -15 10 -9 0 -18 7 -21 15 -4 8 -9 13 -13 10 -5
-2 -39 25 -77 60 -38 36 -66 65 -62 65 4 0 -4 11 -18 25 -14 14 -23 29 -20 34
3 5 0 11 -8 14 -22 9 -48 68 -36 83 8 9 6 16 -9 26 -10 7 -21 27 -22 43 -2 17
-8 33 -14 37 -7 5 -7 8 0 8 6 0 10 22 9 50 0 28 3 50 8 50 4 0 8 5 8 11 0 5
-6 7 -12 3 -9 -5 -9 -2 1 9 7 9 10 17 5 17 -5 0 -1 5 8 11 10 5 15 16 12 24
-4 8 -1 15 6 15 6 0 8 -4 5 -10 -3 -5 3 -10 13 -10 24 0 35 23 19 39 -9 10 -6
10 15 2 20 -7 27 -7 25 1 -1 6 4 13 12 16 9 3 11 0 6 -8 -5 -9 -4 -11 4 -6 13
9 11 37 -4 48 -6 5 -6 8 2 8 6 0 14 -4 18 -10 3 -5 13 -7 23 -4 14 5 14 4 2
-4 -8 -6 -18 -8 -24 -5 -5 3 -6 1 -2 -5 5 -9 13 -9 29 0 12 6 23 11 25 10 9
-7 22 0 16 9 -4 8 -9 7 -15 -2 -6 -10 -9 -10 -9 -2 0 6 4 14 10 18 5 3 7 13 4
23 -5 14 -4 14 4 2 6 -8 9 -17 6 -21 -2 -4 1 -11 8 -16 19 -11 50 -15 44 -5
-7 12 41 9 51 -2 4 -5 3 -6 -3 -3 -8 5 -11 -5 -11 -27 1 -19 4 -33 8 -30 4 2
14 -5 22 -16 13 -18 15 -19 21 -5 4 10 2 14 -6 9 -7 -5 -8 -3 -3 6 6 9 4 11
-5 5 -9 -5 -11 -4 -6 4 4 6 4 10 -1 9 -4 -2 -9 1 -11 6 -1 6 5 11 14 12 9 1
13 0 10 -3 -9 -9 24 -42 37 -39 7 2 9 1 5 -1 -3 -2 -4 -16 -2 -29 4 -19 1 -24
-8 -18 -19 12 -37 13 -43 4 -3 -5 3 -7 15 -5 11 2 22 -1 26 -6 4 -6 11 -6 20
2 12 10 13 9 8 -5 -3 -9 -11 -16 -17 -16 -6 0 -7 -3 -4 -6 4 -4 12 -2 20 4 10
8 13 7 14 -8 1 -13 -3 -17 -13 -13 -8 3 -14 0 -14 -6 0 -6 3 -10 8 -10 19 3
23 -2 12 -16 -10 -13 -9 -15 11 -15 15 0 19 3 12 8 -7 4 -9 13 -4 21 7 11 11
10 19 -5 9 -16 11 -14 7 13 -4 34 8 52 21 32 4 -7 3 -9 -3 -6 -5 3 -10 -1 -10
-9 0 -13 2 -13 16 1 21 21 22 202 2 260 -8 22 -13 41 -13 43 1 1 -7 11 -19 23
-11 11 -18 27 -15 35 3 7 2 13 -3 11 -4 -1 -23 14 -42 33 -42 43 -76 70 -88
70 -4 0 -21 6 -37 14 -36 18 -124 25 -187 15z m6588 -319 c3 -6 -1 -7 -9 -4
-18 7 -21 14 -7 14 6 0 13 -4 16 -10z m30 1 c3 -5 2 -12 -3 -15 -5 -3 -9 1 -9
9 0 17 3 19 12 6z m-6518 -7 c-3 -3 -12 -4 -19 -1 -8 3 -5 6 6 6 11 1 17 -2
13 -5z m-74 -21 c-5 -12 -3 -14 8 -8 12 8 12 6 0 -8 -7 -9 -19 -17 -25 -17 -6
0 -4 5 4 10 12 8 12 10 1 10 -11 0 -11 3 -1 15 16 20 21 19 13 -2z m-38 -21
c-3 -3 -11 0 -18 7 -9 10 -8 11 6 5 10 -3 15 -9 12 -12z m5 -37 c0 -12 -19
-12 -23 0 -4 9 -1 12 9 8 7 -3 14 -7 14 -8z m6710 -16 c0 -5 5 -7 12 -3 7 4 8
3 4 -5 -6 -9 -11 -9 -22 0 -17 14 -18 19 -4 19 6 0 10 -5 10 -11z m30 -89 c0
-5 -5 -10 -11 -10 -5 0 -7 5 -4 10 3 6 8 10 11 10 2 0 4 -4 4 -10z m-6785
-190 c3 -5 1 -10 -4 -10 -6 0 -11 5 -11 10 0 6 2 10 4 10 3 0 8 -4 11 -10z
m7092 -564 c-8 -12 -13 -29 -11 -39 1 -9 -2 -15 -6 -12 -5 3 -11 1 -15 -4 -3
-5 -14 -9 -25 -8 -10 1 -16 5 -14 9 3 5 9 6 13 3 5 -2 17 3 27 11 19 15 19 15
-1 10 -19 -6 -19 -5 -3 7 10 8 14 18 10 22 -4 5 -1 4 7 0 10 -6 13 -4 9 7 -4
9 0 15 8 15 12 0 12 -3 1 -21z m-3690 -24 c-10 -22 -12 -23 -24 -6 -7 10 -13
16 -14 13 0 -2 -2 -12 -4 -21 -2 -10 2 -21 7 -25 7 -3 8 -1 4 5 -10 16 5 15
27 -2 19 -14 24 -42 5 -30 -7 4 -8 3 -4 -5 9 -14 26 -5 26 15 0 26 25 9 26
-17 1 -35 14 -69 26 -69 6 0 6 6 -2 15 -7 8 -9 15 -4 15 5 0 4 4 -2 8 -9 5 -8
11 3 21 12 11 14 10 11 -5 -2 -14 2 -18 17 -16 18 2 18 1 3 -8 -18 -11 -13
-54 6 -47 7 3 20 -1 31 -9 10 -8 13 -14 7 -14 -7 0 -12 -5 -12 -11 0 -5 4 -8
8 -5 4 2 14 1 22 -4 12 -7 12 -11 0 -25 -12 -14 -10 -15 13 -11 32 5 33 3 10
-15 -14 -12 -16 -12 -8 0 6 10 4 12 -4 6 -9 -5 -9 -11 -3 -17 6 -6 8 -16 6
-23 -3 -7 0 -16 7 -21 8 -4 10 -3 5 4 -4 7 -5 16 -1 22 7 11 35 2 35 -12 0 -5
-4 -7 -8 -4 -5 3 -9 -1 -9 -9 0 -11 4 -12 14 -4 10 9 13 8 13 -1 0 -10 3 -10
15 0 9 7 18 10 22 6 3 -3 2 -6 -4 -6 -6 0 -13 -8 -15 -18 -3 -11 0 -19 7 -19
7 0 12 5 11 11 -2 6 -1 8 1 3 3 -4 9 -4 15 -1 6 4 6 -2 -1 -14 -17 -31 -13
-37 7 -12 11 14 24 20 31 16 9 -6 9 -11 -1 -24 -11 -13 -10 -15 5 -9 10 4 16
3 13 -2 -8 -13 16 -29 41 -26 13 1 19 -3 16 -11 -6 -17 -22 -13 -60 15 -27 20
-30 27 -20 39 10 12 9 14 -3 10 -14 -4 -24 -48 -11 -46 20 2 31 -4 25 -14 -4
-6 -3 -8 3 -5 12 7 36 -16 27 -25 -3 -3 0 -9 7 -14 8 -4 10 -3 5 4 -4 7 -1 12
8 12 8 0 18 -5 21 -10 4 -6 11 -7 17 -4 6 4 5 10 -3 16 -11 8 -11 9 1 5 8 -2
14 -10 12 -16 -1 -6 2 -11 8 -11 5 0 10 -4 10 -9 0 -10 -19 -9 -37 2 -7 5 -13
4 -13 -1 0 -9 -768 -14 -783 -5 -4 2 -2 13 4 25 8 15 8 19 0 14 -6 -4 -11 0
-11 8 0 10 -6 13 -15 10 -8 -4 -15 -10 -15 -16 0 -5 5 -6 12 -2 7 5 8 3 3 -6
-5 -8 -4 -11 3 -6 6 4 10 -1 9 -13 -1 -12 -8 -19 -18 -18 -9 1 -15 7 -12 14 3
7 0 19 -6 26 -8 10 0 18 35 35 27 13 42 27 38 33 -3 6 5 4 19 -6 25 -16 25
-16 20 4 -3 12 -9 18 -14 15 -5 -3 -9 0 -9 5 0 18 18 12 33 -9 13 -18 15 -19
21 -5 3 9 2 14 -3 11 -5 -3 -12 2 -16 11 -3 10 -1 19 4 21 6 2 8 9 5 14 -4 7
-2 8 5 4 8 -5 9 -12 2 -20 -7 -8 -5 -12 9 -13 11 -1 22 2 25 8 4 5 -2 6 -11 2
-12 -4 -15 -3 -10 6 4 6 2 20 -5 29 -13 16 -12 16 6 1 11 -9 26 -14 34 -11 9
3 11 0 6 -8 -5 -8 -4 -11 3 -6 6 4 9 13 6 21 -3 8 4 19 18 26 33 17 33 17 12
40 -19 22 -19 22 1 11 15 -7 25 -7 38 3 16 11 16 13 2 19 -9 3 -13 11 -10 17
5 7 14 4 27 -8 11 -9 19 -13 18 -8 -2 6 -1 12 0 15 9 24 6 38 -7 33 -11 -4
-11 -8 -3 -13 8 -5 8 -10 2 -14 -5 -3 -13 1 -16 10 -6 15 -9 15 -29 -2 l-22
-19 19 22 c10 13 22 21 26 18 4 -2 17 3 30 12 21 15 21 17 6 28 -14 11 -13 13
10 13 18 0 22 -3 13 -9 -8 -5 -10 -9 -5 -9 5 0 3 -7 -4 -15 -9 -10 -9 -15 -1
-15 6 0 11 5 11 11 0 8 6 7 18 -2 15 -13 16 -12 4 2 -7 9 -12 21 -11 25 3 21
-2 35 -11 29 -5 -3 -10 -1 -10 4 0 15 11 14 31 -5 13 -12 19 -12 25 -3 4 7 3
10 -3 6 -11 -7 -23 12 -29 43 -1 8 6 4 18 -10 17 -20 20 -21 14 -5 -13 31 -12
60 1 60 6 0 14 2 17 5 3 3 14 6 24 6 17 0 18 -4 9 -24z m32 -8 c4 3 8 -1 8 -9
0 -8 -4 -12 -9 -9 -4 3 -8 1 -8 -5 0 -6 -7 -8 -15 -5 -11 5 -12 9 -2 25 7 11
13 15 15 9 2 -6 7 -8 11 -6z m-3665 -60 c3 -8 2 -12 -4 -9 -6 3 -10 10 -10 16
0 14 7 11 14 -7z m46 -64 c0 -5 -5 -10 -11 -10 -5 0 -7 5 -4 10 3 6 8 10 11
10 2 0 4 -4 4 -10z m20 -54 c0 -11 -19 -15 -25 -6 -3 5 1 10 9 10 9 0 16 -2
16 -4z m7083 -39 c3 -8 2 -20 -3 -27 -6 -9 -11 -7 -20 10 -8 15 -8 20 -1 16 6
-4 11 -2 11 3 0 15 7 14 13 -2z m-3738 -27 c3 5 12 10 18 10 12 -1 -21 -30
-34 -30 -4 0 -10 7 -13 16 -5 14 -4 15 8 5 10 -8 16 -9 21 -1z m3702 -12 c-3
-8 -6 -5 -6 6 -1 11 2 17 5 13 3 -3 4 -12 1 -19z m-3252 2 c3 -6 -1 -7 -9 -4
-18 7 -21 14 -7 14 6 0 13 -4 16 -10z m-3721 -25 c-4 -8 1 -17 10 -21 9 -3 16
-11 16 -17 0 -6 -10 -2 -21 10 -12 11 -18 26 -15 32 10 16 16 13 10 -4z m3246
0 c0 -12 -19 -12 -23 0 -4 9 -1 12 9 8 7 -3 14 -7 14 -8z m500 1 c0 -3 -4 -8
-10 -11 -5 -3 -10 -1 -10 4 0 6 5 11 10 11 6 0 10 -2 10 -4z m3177 -18 c-3 -8
-6 -5 -6 6 -1 11 2 17 5 13 3 -3 4 -12 1 -19z m-33 -62 c-3 -9 -10 -13 -15
-10 -5 3 -3 11 4 19 15 16 19 13 11 -9z m-34 0 c0 -2 -8 -10 -17 -17 -16 -13
-17 -12 -4 4 13 16 21 21 21 13z m-50 -30 c0 -2 -8 -10 -17 -17 -16 -13 -17
-12 -4 4 13 16 21 21 21 13z m3 -40 c6 -15 -17 -16 -30 -1 -4 4 -2 5 5 1 6 -4
12 -2 12 3 0 15 7 14 13 -3z m-3759 -31 c-6 -14 -28 -14 -41 0 -4 4 -2 5 5 1
11 -7 17 6 13 28 -1 5 5 4 13 -3 8 -7 13 -18 10 -26z m-2899 16 c3 -5 1 -12
-4 -15 -5 -3 -11 1 -15 9 -6 16 9 21 19 6z m110 -41 c3 -5 1 -10 -4 -10 -6 0
-11 5 -11 10 0 6 2 10 4 10 3 0 8 -4 11 -10z m61 -59 c-4 -5 0 -11 6 -14 7 -3
3 -4 -9 -4 -17 1 -19 4 -11 14 12 15 22 18 14 4z m6255 -28 c13 -16 12 -17 -3
-4 -10 7 -18 15 -18 17 0 8 8 3 21 -13z m-6091 -53 c0 -5 -2 -10 -4 -10 -3 0
-8 5 -11 10 -3 6 -1 10 4 10 6 0 11 -4 11 -10z m97 -63 c0 -8 -6 -14 -13 -14
-7 0 -10 6 -7 14 3 7 8 13 12 13 4 0 8 -6 8 -13z"/>
<path d="M4051 4704 c0 -11 3 -14 6 -6 3 7 2 16 -1 19 -3 4 -6 -2 -5 -13z"/>
<path d="M4030 4676 c0 -2 8 -10 18 -17 15 -13 16 -12 3 4 -13 16 -21 21 -21
13z"/>
<path d="M4130 4600 c0 -6 -4 -9 -9 -6 -5 3 -11 0 -14 -8 -3 -8 1 -13 11 -12
9 0 16 -4 15 -9 -1 -6 10 -12 23 -13 15 -1 23 2 19 8 -4 6 -10 8 -15 5 -4 -3
-13 1 -19 9 -9 11 -9 15 1 18 9 3 9 6 0 12 -7 4 -12 2 -12 -4z"/>
<path d="M3855 4540 c-3 -5 -1 -10 4 -10 6 0 11 5 11 10 0 6 -2 10 -4 10 -3 0
-8 -4 -11 -10z"/>
<path d="M3648 4376 c-10 -7 -18 -17 -18 -21 0 -4 6 -2 13 4 8 6 16 9 19 6 2
-3 5 2 5 10 0 8 -1 15 -1 15 -1 0 -9 -7 -18 -14z"/>
<path d="M6931 5924 c0 -11 3 -14 6 -6 3 7 2 16 -1 19 -3 4 -6 -2 -5 -13z"/>
<path d="M1035 5900 c3 -5 8 -10 11 -10 2 0 4 5 4 10 0 6 -5 10 -11 10 -5 0
-7 -4 -4 -10z"/>
<path d="M6930 5885 c0 -8 2 -15 4 -15 2 0 6 7 10 15 3 8 1 15 -4 15 -6 0 -10
-7 -10 -15z"/>
<path d="M855 5700 c-10 -11 -15 -23 -12 -27 4 -3 7 -1 7 6 0 7 7 11 15 8 18
-7 26 4 16 21 -5 9 -12 7 -26 -8z"/>
<path d="M805 5699 c-3 -4 2 -6 10 -5 21 3 28 13 10 13 -9 0 -18 -4 -20 -8z"/>
<path d="M7099 5681 c11 -7 11 -9 0 -13 -10 -3 -10 -6 -1 -12 7 -4 12 -3 12 3
0 6 8 8 18 4 14 -5 13 -3 -3 10 -11 9 -24 16 -30 17 -5 0 -4 -4 4 -9z"/>
<path d="M7159 5673 c-13 -17 -13 -17 6 -3 11 8 22 16 24 17 2 2 0 3 -6 3 -6
0 -17 -8 -24 -17z"/>
<path d="M7323 5665 c0 -8 4 -12 9 -9 5 3 6 10 3 15 -9 13 -12 11 -12 -6z"/>
<path d="M950 5630 c0 -5 5 -10 11 -10 5 0 7 5 4 10 -3 6 -8 10 -11 10 -2 0
-4 -4 -4 -10z"/>
<path d="M175 5620 c3 -5 8 -10 11 -10 2 0 4 5 4 10 0 6 -5 10 -11 10 -5 0 -7
-4 -4 -10z"/>
<path d="M610 5600 c-6 -12 -5 -17 5 -17 7 0 11 7 7 15 -3 10 -1 13 6 8 6 -3
13 -3 16 2 3 5 -2 9 -10 9 -8 0 -19 -8 -24 -17z"/>
<path d="M7014 5598 c-4 -7 -4 -10 1 -6 4 4 15 2 24 -5 14 -11 14 -10 2 6 -16
20 -18 21 -27 5z"/>
<path d="M150 5560 c0 -5 5 -10 10 -10 6 0 10 5 10 10 0 6 -4 10 -10 10 -5 0
-10 -4 -10 -10z"/>
<path d="M610 5560 c0 -5 5 -10 10 -10 6 0 10 5 10 10 0 6 -4 10 -10 10 -5 0
-10 -4 -10 -10z"/>
<path d="M595 5511 c1 -42 10 -46 12 -5 1 19 -1 34 -5 34 -5 0 -7 -13 -7 -29z"/>
<path d="M7853 5472 c-8 -14 -8 -19 1 -19 7 0 13 9 13 19 1 10 1 18 0 18 -1 0
-7 -8 -14 -18z"/>
<path d="M135 5460 c3 -5 8 -10 11 -10 2 0 4 5 4 10 0 6 -5 10 -11 10 -5 0 -7
-4 -4 -10z"/>
<path d="M6932 5440 c0 -14 2 -19 5 -12 2 6 2 18 0 25 -3 6 -5 1 -5 -13z"/>
<path d="M603 5415 c-3 -9 -3 -18 -1 -21 3 -3 8 4 11 16 6 23 -1 27 -10 5z"/>
<path d="M133 5395 c0 -8 4 -12 9 -9 5 3 6 10 3 15 -9 13 -12 11 -12 -6z"/>
<path d="M620 5326 c0 -2 8 -10 18 -17 15 -13 16 -12 3 4 -13 16 -21 21 -21
13z"/>
<path d="M7850 5326 c0 -2 7 -7 16 -10 8 -3 12 -2 9 4 -6 10 -25 14 -25 6z"/>
<path d="M6931 5274 c0 -11 3 -14 6 -6 3 7 2 16 -1 19 -3 4 -6 -2 -5 -13z"/>
<path d="M7843 5255 c0 -7 6 -11 14 -8 7 3 13 6 13 8 0 2 -6 5 -13 8 -8 3 -14
-1 -14 -8z"/>
<path d="M141 5213 c16 -27 26 -29 26 -8 0 8 -3 13 -5 10 -3 -3 -12 1 -20 8
-13 11 -14 9 -1 -10z"/>
<path d="M7830 5195 c1 -5 1 -12 0 -15 -9 -23 -6 -38 6 -33 14 5 14 36 0 50
-4 5 -7 4 -6 -2z"/>
<path d="M136 5157 c3 -10 9 -15 12 -12 3 3 0 11 -7 18 -10 9 -11 8 -5 -6z"/>
<path d="M7856 5127 c3 -10 9 -15 12 -12 3 3 0 11 -7 18 -10 9 -11 8 -5 -6z"/>
<path d="M6931 5114 c0 -11 3 -14 6 -6 3 7 2 16 -1 19 -3 4 -6 -2 -5 -13z"/>
<path d="M155 5110 c-3 -6 1 -7 9 -4 18 7 21 14 7 14 -6 0 -13 -4 -16 -10z"/>
<path d="M180 5093 c5 -2 8 -9 5 -13 -3 -5 -1 -11 4 -14 5 -4 8 2 7 11 -2 9
-8 18 -15 19 -6 1 -7 0 -1 -3z"/>
<path d="M7809 5083 c0 -5 -2 -18 -5 -30 -2 -12 0 -24 5 -27 4 -3 7 6 5 19 -1
14 2 25 7 25 5 0 9 5 9 10 0 11 -20 14 -21 3z"/>
<path d="M158 5053 c7 -3 16 -2 19 1 4 3 -2 6 -13 5 -11 0 -14 -3 -6 -6z"/>
<path d="M194 5012 c0 -22 5 -38 10 -34 5 3 7 -1 4 -10 -4 -8 0 -15 8 -15 7 0
10 5 7 10 -3 6 -7 20 -8 31 0 12 -6 29 -11 40 -9 15 -11 11 -10 -22z"/>
<path d="M7795 4960 c6 -10 4 -12 -7 -7 -30 11 -59 -45 -35 -69 3 -4 5 3 2 15
-2 11 -1 21 3 21 4 0 18 9 31 19 18 14 21 20 11 26 -9 6 -11 4 -5 -5z"/>
<path d="M7770 4899 c0 -5 5 -7 10 -4 6 3 10 8 10 11 0 2 -4 4 -10 4 -5 0 -10
-5 -10 -11z"/>
<path d="M307 4699 c7 -7 15 -10 18 -7 3 3 -2 9 -12 12 -14 6 -15 5 -6 -5z"/>
<path d="M360 4620 c-9 -6 -10 -10 -3 -10 6 0 15 5 18 10 8 12 4 12 -15 0z"/>
<path d="M7555 4560 c-5 -7 52 -6 60 1 2 3 -9 5 -26 5 -16 0 -32 -3 -34 -6z"/>
<path d="M470 4466 c0 -2 7 -7 16 -10 8 -3 12 -2 9 4 -6 10 -25 14 -25 6z"/>
<path d="M7467 4439 c7 -7 15 -10 18 -7 3 3 -2 9 -12 12 -14 6 -15 5 -6 -5z"/>
<path d="M563 4413 c-7 -2 -13 -9 -13 -15 0 -7 5 -7 13 1 8 6 18 7 22 3 5 -4
5 -1 1 6 -4 6 -8 12 -9 11 -1 0 -8 -3 -14 -6z"/>
<path d="M7254 4266 c-3 -8 -14 -13 -24 -11 -18 4 -22 -17 -5 -32 4 -4 5 -3 1
4 -3 6 -2 14 4 18 5 3 10 0 10 -7 1 -7 7 -2 15 12 8 14 14 19 15 13 0 -15 20
-18 20 -4 0 16 -31 21 -36 7z"/>
<path d="M7153 4190 c-11 -16 -10 -18 2 -14 8 4 15 12 15 20 0 19 -3 18 -17
-6z"/>
<path d="M836 4167 c3 -10 9 -15 12 -12 3 3 0 11 -7 18 -10 9 -11 8 -5 -6z"/>
<path d="M7070 4129 c0 -5 5 -7 10 -4 6 3 10 8 10 11 0 2 -4 4 -10 4 -5 0 -10
-5 -10 -11z"/>
<path d="M950 4111 c0 -6 4 -13 10 -16 6 -3 7 1 4 9 -7 18 -14 21 -14 7z"/>
<path d="M7011 4084 c0 -11 3 -14 6 -6 3 7 2 16 -1 19 -3 4 -6 -2 -5 -13z"/>
<path d="M1163 4031 c0 -11 5 -18 9 -15 4 3 5 11 1 19 -7 21 -12 19 -10 -4z"/>
<path d="M6905 4040 c-3 -6 1 -7 9 -4 18 7 21 14 7 14 -6 0 -13 -4 -16 -10z"/>
</g>
</svg>
