<?xml version="1.0" standalone="no"?>
<!DOCTYPE svg PUBLIC "-//W3C//DTD SVG 20010904//EN"
 "http://www.w3.org/TR/2001/REC-SVG-20010904/DTD/svg10.dtd">
<svg version="1.0" xmlns="http://www.w3.org/2000/svg"
 width="280.000000pt" height="280.000000pt" viewBox="0 0 280.000000 280.000000"
 preserveAspectRatio="xMidYMid meet">
<metadata>
Created by potrace 1.11, written by Peter Selinger 2001-2013
</metadata>
<g transform="translate(0.000000,280.000000) scale(0.100000,-0.100000)"
fill="#000000" stroke="none">
<path d="M1205 2785 c-323 -50 -597 -193 -818 -424 -183 -193 -300 -417 -359
-689 -16 -75 -21 -132 -21 -252 0 -192 -1 -182 23 -300 116 -572 571 -1009
1148 -1105 126 -21 396 -16 509 9 552 125 964 537 1089 1089 25 110 30 388 10
507 -94 544 -474 973 -997 1123 -46 14 -102 27 -124 31 -22 3 -69 10 -105 16
-87 13 -256 11 -355 -5z m-204 -799 c3 -3 3 -23 1 -46 -4 -38 -6 -40 -43 -46
-23 -4 -39 -12 -39 -20 0 -7 25 -123 56 -256 30 -134 58 -254 60 -268 5 -19
11 -4 28 60 13 47 54 197 92 333 l68 248 60 -3 59 -3 13 -45 c120 -428 149
-533 158 -574 l11 -50 34 155 c44 200 81 368 88 397 4 18 1 22 -18 22 -58 0
-69 10 -69 56 l0 44 148 0 c82 0 151 -2 153 -4 3 -3 3 -23 1 -45 -4 -36 -7
-40 -40 -48 l-37 -9 -27 -114 c-15 -63 -58 -243 -96 -400 l-69 -285 -56 -3
c-51 -3 -58 -1 -67 20 -16 37 -180 621 -180 643 -1 11 -45 -133 -98 -320 l-97
-340 -61 -3 -61 -3 -92 373 c-50 205 -91 382 -91 393 0 31 -12 43 -53 50 -35
7 -37 9 -37 44 0 21 3 41 7 44 7 8 287 10 294 3z"/>
</g>
</svg>
